<svg id="Layer_1" data-name="Layer 1" xmlns="http://www.w3.org/2000/svg" viewBox="0 0 411.1 452.65"><defs><style>.cls-1{fill:#7c70b2;}.cls-2{fill:#5e5c89;}.cls-3{fill:#706aa3;}</style></defs><path class="cls-1" d="M909.89,523.05a29.8,29.8,0,0,1,52.73-2.4c6,10.21,5.41,23,10,33.91,2.57,6.11,6.66,11.42,10.71,16.66,8,10.3,15.93,20.61,24.25,30.62,3.24,3.89,7.45,8.12,12.47,7.42,3.59-.49,6.33-3.46,8.18-6.57a29.91,29.91,0,0,0-21.13-44.83c-2.81-.44-5.77-.5-8.27-1.85s-4.29-4.62-2.87-7.08c1-1.79,3.26-2.45,5.3-2.72a35.68,35.68,0,0,1,18.75,3,47.35,47.35,0,0,1,23.27,65.36c-4.08,7.85-10.41,14.66-12.61,23.23-1.63,6.33-1.15,13.82-5.85,18.36-3.92,3.8-10,4-15.44,4L974.06,660a3.21,3.21,0,0,1-1.84-.38,2.66,2.66,0,0,1-.81-2.64c.53-3.67,3.85-6.31,7.25-7.79S985.8,647,988.94,645a5.87,5.87,0,0,0,2.53-2.64,6.51,6.51,0,0,0,0-3.61,29.38,29.38,0,0,0-7.32-14.28c-5-5.35-12.28-9.24-14.32-16.26-1-3.62-.48-7.48-.52-11.25a36,36,0,0,0-22.61-32.49c1.87,2.9,1.23,6.88-.68,9.76s-4.84,4.88-7.74,6.74a18.85,18.85,0,0,0-5.49,4.56c-1.39,2-1.91,4.74-.58,6.73,2.9,4.35,10.73,1.2,14.33,5,1.85,1.94,1.8,5,1,7.6s-2.33,4.86-3,7.44c-1.69,6,.92,12.24,2.67,18.22,2.26,7.71,3,16.43-.95,23.44a20,20,0,0,1-16.85,10c-2.79,0-5.94-.79-7.24-3.26-2-3.79,1.57-7.94,4.29-11.25,11.31-13.79,10.09-35,.45-50-2-3.15-4.45-6.28-4.9-10-.53-4.39,1.79-8.55,3.47-12.65,3.63-8.89,3.7-20.61-3.86-26.54-5-3.94-12.05-4.26-17.47-7.63-6.36-4-9.5-11.38-12.26-18.34l19.82-1.65" transform="translate(-836.9 -260.35)"/><path class="cls-1" d="M927.51,510c3.51,1.29,5.7,4.88,6.61,8.51a20.41,20.41,0,0,1,.3,8.38c-.8,4.61-3.19,8.92-3.37,13.6a14.62,14.62,0,0,0,15,15.19,9.35,9.35,0,0,0,4.66-1.23,8.84,8.84,0,0,0,2.83-3c2.55-4.18,2.5-9.51,1.19-14.23s-3.72-9-5.75-13.49-3.71-9.26-3.35-14.14" transform="translate(-836.9 -260.35)"/><path class="cls-1" d="M924.21,522.25c-1,.12-1.22,1.59-.49,2.2a1.84,1.84,0,0,0,2.52-.44,3.24,3.24,0,0,0,.42-2.72c-.08-.38-.33-.83-.72-.78a.83.83,0,0,0-.42.25,5.11,5.11,0,0,0-1.24,1.34,1.82,1.82,0,0,0-.11,1.75" transform="translate(-836.9 -260.35)"/><path class="cls-2" d="M1235.34,270.22c-11.35-9.91-23.46-14.61-33.36-3.26l-96.8,110.9c-9.9,11.35-3.61,22.71,7.74,32.61s23.45,14.61,33.36,3.26l96.79-110.9c9.91-11.35,3.61-22.71-7.73-32.61Z" transform="translate(-836.9 -260.35)"/><path class="cls-3" d="M1117.46,414.16c-8.5-8.9-12.09-18.74-3.5-28.58l96.79-110.9c8.58-9.83,18.82-7.6,28.79-.39,8.49,8.9,12.09,18.74,3.5,28.58l-96.79,110.9c-8.59,9.83-18.83,7.6-28.79.39Z" transform="translate(-836.9 -260.35)"/><path class="cls-1" d="M1124.59,401.24c-6.77-5.91-11.94-11.08-17.85-4.31l-74.59,85.46a16.28,16.28,0,1,0,24.54,21.41l74.59-85.45c5.91-6.78.09-11.19-6.69-17.11" transform="translate(-836.9 -260.35)"/><path class="cls-1" d="M879.44,681.08a126.58,126.58,0,1,0-10.62-178.69A126.58,126.58,0,0,0,879.44,681.08ZM1032,511.27a100.36,100.36,0,1,1-141.68,8.42A100.36,100.36,0,0,1,1032,511.27Z" transform="translate(-836.9 -260.35)"/></svg>